Maitree-700.ufo
<glyph name="uni02CC" format="2">
	<advance width="199"/>
	<unicode hex="02CC"/>
	<note>
		uni02CC
	</note>
	<outline>
		<contour>
			<point x="42" y="-173" type="line"/>
			<point x="157" y="-173" type="line"/>
			<point x="157" y="0" type="line"/>
			<point x="42" y="0" type="line"/>
		</contour>
	</outline>
</glyph>
<glyph name="hungarumlaut" format="2">
	<advance width="474"/>
	<unicode hex="02DD"/>
	<note>
		hungarumlaut
	</note>
	<outline>
		<contour>
			<point x="286" y="516" type="line"/>
			<point x="448" y="717" type="line"/>
			<point x="358" y="771" type="line"/>
			<point x="227" y="557" type="line"/>
		</contour>
		<contour>
			<point x="86" y="516" type="line"/>
			<point x="248" y="717" type="line"/>
			<point x="158" y="771" type="line"/>
			<point x="27" y="557" type="line"/>
		</contour>
	</outline>
</glyph>
<glyph name="uni0326" format="2">
	<advance width="0"/>
	<unicode hex="0326"/>
	<note>
		uni0326
	</note>
	<outline>
		<contour>
			<point x="140" y="-285" type="line"/>
			<point x="284" y="-109" type="line"/>
			<point x="186" y="-46" type="line"/>
			<point x="68" y="-234" type="line"/>
		</contour>
	</outline>
</glyph>
<glyph name="phinthu-thai" format="2">
	<advance width="0"/>
	<unicode hex="0E3A"/>
	<anchor x="-76" y="0" name="_bottom"/>
	<anchor x="-76" y="-223" name="bottom"/>
	<note>
		phinthu-thai
	</note>
	<outline>
		<contour>
			<point x="-147" y="-214" type="curve" smooth="yes"/>
			<point x="-103" y="-214"/>
			<point x="-63" y="-178"/>
			<point x="-63" y="-129" type="curve" smooth="yes"/>
			<point x="-63" y="-80"/>
			<point x="-103" y="-45"/>
			<point x="-147" y="-45" type="curve" smooth="yes"/>
			<point x="-192" y="-45"/>
			<point x="-232" y="-80"/>
			<point x="-232" y="-129" type="curve" smooth="yes"/>
			<point x="-232" y="-178"/>
			<point x="-192" y="-214"/>
		</contour>
	</outline>
</glyph>
<glyph name="lakkhangyao-thai" format="2">
	<advance width="480"/>
	<unicode hex="0E45"/>
	<note>
		lakkhangyao-thai
	</note>
	<outline>
		<contour>
			<point x="344" y="-170" type="curve" smooth="yes"/>
			<point x="383" y="-170"/>
			<point x="404" y="-152"/>
			<point x="404" y="-129" type="curve" smooth="yes"/>
			<point x="404" y="388" type="line" smooth="yes"/>
			<point x="404" y="506"/>
			<point x="311" y="562"/>
			<point x="209" y="562" type="curve" smooth="yes"/>
			<point x="152" y="562"/>
			<point x="95" y="547"/>
			<point x="48" y="525" type="curve" smooth="yes"/>
			<point x="28" y="515"/>
			<point x="9" y="504"/>
			<point x="9" y="477" type="curve" smooth="yes"/>
			<point x="9" y="453"/>
			<point x="25" y="443"/>
			<point x="38" y="443" type="curve" smooth="yes"/>
			<point x="47" y="443"/>
			<point x="55" y="447"/>
			<point x="76" y="455" type="curve" smooth="yes"/>
			<point x="115" y="470"/>
			<point x="151" y="482"/>
			<point x="188" y="482" type="curve" smooth="yes"/>
			<point x="237" y="482"/>
			<point x="269" y="457"/>
			<point x="269" y="399" type="curve" smooth="yes"/>
			<point x="269" y="-113" type="line" smooth="yes"/>
			<point x="269" y="-148"/>
			<point x="294" y="-170"/>
		</contour>
	</outline>
</glyph>
<glyph name="maiEk-thai" format="2">
	<advance width="0"/>
	<unicode hex="0E48"/>
	<anchor x="-99" y="563" name="top"/>
	<anchor x="-75" y="260" name="_top"/>
	<note>
		maiEk-thai
	</note>
	<outline>
		<contour>
			<point x="-137" y="640" type="curve" smooth="yes"/>
			<point x="-104" y="640"/>
			<point x="-83" y="660"/>
			<point x="-83" y="683" type="curve" smooth="yes"/>
			<point x="-83" y="817" type="line" smooth="yes"/>
			<point x="-83" y="852"/>
			<point x="-106" y="874"/>
			<point x="-150" y="874" type="curve" smooth="yes"/>
			<point x="-186" y="874"/>
			<point x="-204" y="854"/>
			<point x="-204" y="831" type="curve" smooth="yes"/>
			<point x="-204" y="697" type="line" smooth="yes"/>
			<point x="-204" y="662"/>
			<point x="-184" y="640"/>
		</contour>
	</outline>
</glyph>
<glyph name="thanthakhat-thai" format="2">
	<advance width="0"/>
	<unicode hex="0E4C"/>
	<anchor x="-115" y="522" name="top"/>
	<anchor x="-75" y="260" name="_top"/>
	<note>
		thanthakhat-thai
	</note>
	<outline>
		<contour>
			<point x="-267" y="627" type="curve" smooth="yes"/>
			<point x="-224" y="627"/>
			<point x="-182" y="655"/>
			<point x="-182" y="704" type="curve" smooth="yes"/>
			<point x="-182" y="711"/>
			<point x="-184" y="718"/>
			<point x="-186" y="725" type="curve"/>
			<point x="-183" y="727" type="line"/>
			<point x="-176" y="719"/>
			<point x="-165" y="716"/>
			<point x="-156" y="716" type="curve" smooth="yes"/>
			<point x="-54" y="716" type="line" smooth="yes"/>
			<point x="-23" y="716"/>
			<point x="-13" y="741"/>
			<point x="-13" y="774" type="curve" smooth="yes"/>
			<point x="-13" y="799"/>
			<point x="-27" y="816"/>
			<point x="-45" y="816" type="curve" smooth="yes"/>
			<point x="-254" y="816" type="line" smooth="yes"/>
			<point x="-315" y="816"/>
			<point x="-363" y="781"/>
			<point x="-363" y="722" type="curve" smooth="yes"/>
			<point x="-363" y="661"/>
			<point x="-320" y="627"/>
		</contour>
		<contour>
			<point x="-267" y="679" type="curve" smooth="yes"/>
			<point x="-288" y="679"/>
			<point x="-302" y="693"/>
			<point x="-302" y="716" type="curve" smooth="yes"/>
			<point x="-302" y="738"/>
			<point x="-287" y="751"/>
			<point x="-267" y="751" type="curve" smooth="yes"/>
			<point x="-246" y="751"/>
			<point x="-232" y="738"/>
			<point x="-232" y="716" type="curve" smooth="yes"/>
			<point x="-232" y="693"/>
			<point x="-247" y="679"/>
		</contour>
	</outline>
</glyph>
<glyph name="nikhahit-thai" format="2">
	<advance width="0"/>
	<unicode hex="0E4D"/>
	<anchor x="-92" y="522" name="top"/>
	<anchor x="-75" y="260" name="_top"/>
	<note>
		nikhahit-thai
	</note>
	<outline>
		<contour>
			<point x="-141" y="630" type="curve" smooth="yes"/>
			<point x="-84" y="630"/>
			<point x="-28" y="667"/>
			<point x="-28" y="738" type="curve" smooth="yes"/>
			<point x="-28" y="810"/>
			<point x="-84" y="847"/>
			<point x="-141" y="847" type="curve" smooth="yes"/>
			<point x="-199" y="847"/>
			<point x="-255" y="810"/>
			<point x="-255" y="738" type="curve" smooth="yes"/>
			<point x="-255" y="667"/>
			<point x="-199" y="630"/>
		</contour>
		<contour>
			<point x="-141" y="697" type="curve" smooth="yes"/>
			<point x="-162" y="697"/>
			<point x="-179" y="711"/>
			<point x="-179" y="738" type="curve" smooth="yes"/>
			<point x="-179" y="766"/>
			<point x="-162" y="779"/>
			<point x="-141" y="779" type="curve" smooth="yes"/>
			<point x="-121" y="779"/>
			<point x="-104" y="766"/>
			<point x="-104" y="738" type="curve" smooth="yes"/>
			<point x="-104" y="712"/>
			<point x="-121" y="697"/>
		</contour>
	</outline>
</glyph>
<glyph name="Ocircumflextilde" format="2">
	<advance width="766"/>
	<unicode hex="1ED6"/>
	<note>
		Ocircumflextilde
	</note>
	<outline>
		<contour>
			<point x="383" y="-15" type="curve" smooth="yes"/>
			<point x="571" y="-15"/>
			<point x="727" y="93"/>
			<point x="727" y="347" type="curve" smooth="yes"/>
			<point x="727" y="601"/>
			<point x="571" y="710"/>
			<point x="383" y="710" type="curve" smooth="yes"/>
			<point x="195" y="710"/>
			<point x="39" y="601"/>
			<point x="39" y="347" type="curve" smooth="yes"/>
			<point x="39" y="93"/>
			<point x="195" y="-15"/>
		</contour>
		<contour>
			<point x="383" y="79" type="curve" smooth="yes"/>
			<point x="256" y="79"/>
			<point x="191" y="174"/>
			<point x="191" y="347" type="curve" smooth="yes"/>
			<point x="191" y="520"/>
			<point x="256" y="616"/>
			<point x="383" y="616" type="curve" smooth="yes"/>
			<point x="510" y="616"/>
			<point x="575" y="520"/>
			<point x="575" y="347" type="curve" smooth="yes"/>
			<point x="575" y="174"/>
			<point x="510" y="79"/>
		</contour>
		<contour>
			<point x="286" y="754" type="line"/>
			<point x="383" y="865" type="line"/>
			<point x="480" y="754" type="line"/>
			<point x="541" y="808" type="line"/>
			<point x="416" y="971" type="line"/>
			<point x="350" y="971" type="line"/>
			<point x="225" y="808" type="line"/>
		</contour>
		<contour>
			<point x="442" y="1000" type="curve" smooth="yes"/>
			<point x="470" y="1000"/>
			<point x="501" y="1016"/>
			<point x="528" y="1044" type="curve"/>
			<point x="489" y="1098" type="line"/>
			<point x="473" y="1086"/>
			<point x="458" y="1080"/>
			<point x="441" y="1080" type="curve" smooth="yes"/>
			<point x="403" y="1080"/>
			<point x="373" y="1113"/>
			<point x="333" y="1113" type="curve" smooth="yes"/>
			<point x="306" y="1113"/>
			<point x="271" y="1094"/>
			<point x="244" y="1070" type="curve"/>
			<point x="283" y="1014" type="line"/>
			<point x="298" y="1025"/>
			<point x="312" y="1034"/>
			<point x="333" y="1034" type="curve" smooth="yes"/>
			<point x="371" y="1034"/>
			<point x="401" y="1000"/>
		</contour>
	</outline>
</glyph>
<glyph name="ocircumflextilde" format="2">
	<advance width="568"/>
	<unicode hex="1ED7"/>
	<note>
		ocircumflextilde
	</note>
	<outline>
		<contour>
			<point x="284" y="-15" type="curve" smooth="yes"/>
			<point x="418" y="-15"/>
			<point x="539" y="64"/>
			<point x="539" y="244" type="curve" smooth="yes"/>
			<point x="539" y="424"/>
			<point x="418" y="502"/>
			<point x="284" y="502" type="curve" smooth="yes"/>
			<point x="150" y="502"/>
			<point x="29" y="424"/>
			<point x="29" y="244" type="curve" smooth="yes"/>
			<point x="29" y="64"/>
			<point x="150" y="-15"/>
		</contour>
		<contour>
			<point x="284" y="70" type="curve" smooth="yes"/>
			<point x="209" y="70"/>
			<point x="170" y="131"/>
			<point x="170" y="244" type="curve" smooth="yes"/>
			<point x="170" y="357"/>
			<point x="209" y="417"/>
			<point x="284" y="417" type="curve" smooth="yes"/>
			<point x="359" y="417"/>
			<point x="398" y="357"/>
			<point x="398" y="244" type="curve" smooth="yes"/>
			<point x="398" y="131"/>
			<point x="359" y="70"/>
		</contour>
		<contour>
			<point x="185" y="552" type="line"/>
			<point x="282" y="663" type="line"/>
			<point x="379" y="552" type="line"/>
			<point x="440" y="606" type="line"/>
			<point x="315" y="769" type="line"/>
			<point x="249" y="769" type="line"/>
			<point x="124" y="606" type="line"/>
		</contour>
		<contour>
			<point x="341" y="798" type="curve" smooth="yes"/>
			<point x="369" y="798"/>
			<point x="400" y="814"/>
			<point x="427" y="842" type="curve"/>
			<point x="388" y="896" type="line"/>
			<point x="372" y="884"/>
			<point x="357" y="878"/>
			<point x="340" y="878" type="curve" smooth="yes"/>
			<point x="302" y="878"/>
			<point x="272" y="911"/>
			<point x="232" y="911" type="curve" smooth="yes"/>
			<point x="205" y="911"/>
			<point x="170" y="892"/>
			<point x="143" y="868" type="curve"/>
			<point x="182" y="812" type="line"/>
			<point x="197" y="823"/>
			<point x="211" y="832"/>
			<point x="232" y="832" type="curve" smooth="yes"/>
			<point x="270" y="832"/>
			<point x="300" y="798"/>
		</contour>
	</outline>
</glyph>
<glyph name="figuredash" format="2">
	<advance width="521"/>
	<unicode hex="2012"/>
	<note>
		figuredash
	</note>
	<outline>
		<contour>
			<point x="22" y="242" type="line"/>
			<point x="499" y="242" type="line"/>
			<point x="499" y="357" type="line"/>
			<point x="22" y="357" type="line"/>
		</contour>
	</outline>
</glyph>
<glyph name="parenleftsuperior" format="2">
	<advance width="169"/>
	<unicode hex="207D"/>
	<note>
		uni207D
	</note>
	<outline>
		<contour>
			<point x="71" y="350" type="curve"/>
			<point x="160" y="350" type="line"/>
			<point x="129" y="410"/>
			<point x="99" y="471"/>
			<point x="99" y="576" type="curve" smooth="yes"/>
			<point x="99" y="681"/>
			<point x="129" y="740"/>
			<point x="160" y="800" type="curve"/>
			<point x="71" y="800" type="line"/>
			<point x="36" y="741"/>
			<point x="9" y="668"/>
			<point x="9" y="576" type="curve" smooth="yes"/>
			<point x="9" y="483"/>
			<point x="36" y="408"/>
		</contour>
	</outline>
</glyph>
<glyph name="arrowleft" format="2">
	<advance width="957"/>
	<unicode hex="2190"/>
	<note>
		arrowleft
	</note>
	<outline>
		<contour>
			<point x="217" y="205" type="line"/>
			<point x="358" y="205" type="line"/>
			<point x="255" y="293" type="line"/>
			<point x="862" y="293" type="line"/>
			<point x="862" y="408" type="line"/>
			<point x="255" y="408" type="line"/>
			<point x="358" y="496" type="line"/>
			<point x="217" y="496" type="line"/>
			<point x="72" y="372" type="line"/>
			<point x="72" y="328" type="line"/>
		</contour>
	</outline>
</glyph>
<glyph name="maiEk-thai.narrow" format="2">
	<advance width="0"/>
	<anchor x="-246" y="562" name="top"/>
	<anchor x="-246" y="260" name="_top"/>
	<note>
		maiEk-thai.narrow
	</note>
	<outline>
		<contour>
			<point x="-327" y="640" type="curve" smooth="yes"/>
			<point x="-294" y="640"/>
			<point x="-273" y="660"/>
			<point x="-273" y="683" type="curve" smooth="yes"/>
			<point x="-273" y="817" type="line" smooth="yes"/>
			<point x="-273" y="852"/>
			<point x="-296" y="874"/>
			<point x="-340" y="874" type="curve" smooth="yes"/>
			<point x="-376" y="874"/>
			<point x="-394" y="854"/>
			<point x="-394" y="831" type="curve" smooth="yes"/>
			<point x="-394" y="697" type="line" smooth="yes"/>
			<point x="-394" y="662"/>
			<point x="-374" y="640"/>
		</contour>
	</outline>
</glyph>
<glyph name="nikhahit_maiChattawa-thai" format="2">
	<advance width="0"/>
	<anchor x="-92" y="522" name="top"/>
	<anchor x="-75" y="260" name="_top"/>
	<outline>
		<contour>
			<point x="-141" y="630" type="curve" smooth="yes"/>
			<point x="-84" y="630"/>
			<point x="-28" y="667"/>
			<point x="-28" y="738" type="curve" smooth="yes"/>
			<point x="-28" y="810"/>
			<point x="-84" y="847"/>
			<point x="-141" y="847" type="curve" smooth="yes"/>
			<point x="-199" y="847"/>
			<point x="-255" y="810"/>
			<point x="-255" y="738" type="curve" smooth="yes"/>
			<point x="-255" y="667"/>
			<point x="-199" y="630"/>
		</contour>
		<contour>
			<point x="-141" y="697" type="curve" smooth="yes"/>
			<point x="-162" y="697"/>
			<point x="-179" y="711"/>
			<point x="-179" y="738" type="curve" smooth="yes"/>
			<point x="-179" y="766"/>
			<point x="-162" y="779"/>
			<point x="-141" y="779" type="curve" smooth="yes"/>
			<point x="-121" y="779"/>
			<point x="-104" y="766"/>
			<point x="-104" y="738" type="curve" smooth="yes"/>
			<point x="-104" y="712"/>
			<point x="-121" y="697"/>
		</contour>
		<contour>
			<point x="-123" y="900" type="curve" smooth="yes"/>
			<point x="-92" y="900"/>
			<point x="-72" y="922"/>
			<point x="-78" y="955" type="curve" smooth="yes"/>
			<point x="-86" y="1002" type="line"/>
			<point x="-64" y="997" type="line" smooth="yes"/>
			<point x="-19" y="987"/>
			<point x="12" y="997"/>
			<point x="12" y="1043" type="curve" smooth="yes"/>
			<point x="12" y="1074"/>
			<point x="-9" y="1085"/>
			<point x="-54" y="1079" type="curve" smooth="yes"/>
			<point x="-86" y="1074" type="line"/>
			<point x="-81" y="1099" type="line" smooth="yes"/>
			<point x="-73" y="1144"/>
			<point x="-89" y="1176"/>
			<point x="-135" y="1176" type="curve" smooth="yes"/>
			<point x="-166" y="1176"/>
			<point x="-186" y="1154"/>
			<point x="-180" y="1121" type="curve" smooth="yes"/>
			<point x="-172" y="1074" type="line"/>
			<point x="-194" y="1079" type="line" smooth="yes"/>
			<point x="-239" y="1089"/>
			<point x="-270" y="1075"/>
			<point x="-270" y="1033" type="curve" smooth="yes"/>
			<point x="-270" y="998"/>
			<point x="-249" y="990"/>
			<point x="-204" y="997" type="curve" smooth="yes"/>
			<point x="-172" y="1002" type="line"/>
			<point x="-177" y="977" type="line" smooth="yes"/>
			<point x="-186" y="931"/>
			<point x="-169" y="900"/>
		</contour>
	</outline>
</glyph>
<glyph name="nikhahit_maiChattawa-thai.narrow" format="2">
	<advance width="0"/>
	<anchor x="-332" y="522" name="top"/>
	<anchor x="-255" y="260" name="_top"/>
	<outline>
		<contour>
			<point x="-384" y="630" type="curve" smooth="yes"/>
			<point x="-327" y="630"/>
			<point x="-271" y="667"/>
			<point x="-271" y="738" type="curve" smooth="yes"/>
			<point x="-271" y="810"/>
			<point x="-327" y="847"/>
			<point x="-384" y="847" type="curve" smooth="yes"/>
			<point x="-442" y="847"/>
			<point x="-498" y="810"/>
			<point x="-498" y="738" type="curve" smooth="yes"/>
			<point x="-498" y="667"/>
			<point x="-442" y="630"/>
		</contour>
		<contour>
			<point x="-384" y="697" type="curve" smooth="yes"/>
			<point x="-405" y="697"/>
			<point x="-422" y="711"/>
			<point x="-422" y="738" type="curve" smooth="yes"/>
			<point x="-422" y="766"/>
			<point x="-405" y="779"/>
			<point x="-384" y="779" type="curve" smooth="yes"/>
			<point x="-364" y="779"/>
			<point x="-347" y="766"/>
			<point x="-347" y="738" type="curve" smooth="yes"/>
			<point x="-347" y="712"/>
			<point x="-364" y="697"/>
		</contour>
		<contour>
			<point x="-365" y="900" type="curve" smooth="yes"/>
			<point x="-334" y="900"/>
			<point x="-314" y="922"/>
			<point x="-320" y="955" type="curve" smooth="yes"/>
			<point x="-328" y="1002" type="line"/>
			<point x="-306" y="997" type="line" smooth="yes"/>
			<point x="-261" y="987"/>
			<point x="-230" y="997"/>
			<point x="-230" y="1043" type="curve" smooth="yes"/>
			<point x="-230" y="1074"/>
			<point x="-251" y="1085"/>
			<point x="-296" y="1079" type="curve" smooth="yes"/>
			<point x="-328" y="1074" type="line"/>
			<point x="-323" y="1099" type="line" smooth="yes"/>
			<point x="-315" y="1144"/>
			<point x="-331" y="1176"/>
			<point x="-377" y="1176" type="curve" smooth="yes"/>
			<point x="-408" y="1176"/>
			<point x="-428" y="1154"/>
			<point x="-422" y="1121" type="curve" smooth="yes"/>
			<point x="-414" y="1074" type="line"/>
			<point x="-436" y="1079" type="line" smooth="yes"/>
			<point x="-481" y="1089"/>
			<point x="-512" y="1075"/>
			<point x="-512" y="1033" type="curve" smooth="yes"/>
			<point x="-512" y="998"/>
			<point x="-491" y="990"/>
			<point x="-446" y="997" type="curve" smooth="yes"/>
			<point x="-414" y="1002" type="line"/>
			<point x="-419" y="977" type="line" smooth="yes"/>
			<point x="-428" y="931"/>
			<point x="-411" y="900"/>
		</contour>
	</outline>
</glyph>
<glyph name="nikhahit_maiEk-thai" format="2">
	<advance width="0"/>
	<anchor x="-92" y="522" name="top"/>
	<anchor x="-75" y="260" name="_top"/>
	<outline>
		<contour>
			<point x="-141" y="630" type="curve" smooth="yes"/>
			<point x="-84" y="630"/>
			<point x="-28" y="667"/>
			<point x="-28" y="738" type="curve" smooth="yes"/>
			<point x="-28" y="810"/>
			<point x="-84" y="847"/>
			<point x="-141" y="847" type="curve" smooth="yes"/>
			<point x="-199" y="847"/>
			<point x="-255" y="810"/>
			<point x="-255" y="738" type="curve" smooth="yes"/>
			<point x="-255" y="667"/>
			<point x="-199" y="630"/>
		</contour>
		<contour>
			<point x="-141" y="697" type="curve" smooth="yes"/>
			<point x="-162" y="697"/>
			<point x="-179" y="711"/>
			<point x="-179" y="738" type="curve" smooth="yes"/>
			<point x="-179" y="766"/>
			<point x="-162" y="779"/>
			<point x="-141" y="779" type="curve" smooth="yes"/>
			<point x="-121" y="779"/>
			<point x="-104" y="766"/>
			<point x="-104" y="738" type="curve" smooth="yes"/>
			<point x="-104" y="712"/>
			<point x="-121" y="697"/>
		</contour>
		<contour>
			<point x="-123" y="900" type="curve" smooth="yes"/>
			<point x="-90" y="900"/>
			<point x="-77" y="920"/>
			<point x="-77" y="943" type="curve" smooth="yes"/>
			<point x="-77" y="1057" type="line" smooth="yes"/>
			<point x="-77" y="1092"/>
			<point x="-92" y="1114"/>
			<point x="-136" y="1114" type="curve" smooth="yes"/>
			<point x="-169" y="1114"/>
			<point x="-183" y="1094"/>
			<point x="-183" y="1071" type="curve" smooth="yes"/>
			<point x="-183" y="957" type="line" smooth="yes"/>
			<point x="-183" y="922"/>
			<point x="-167" y="900"/>
		</contour>
	</outline>
</glyph>
<glyph name="nikhahit_maiEk-thai.narrow" format="2">
	<advance width="0"/>
	<anchor x="-332" y="522" name="top"/>
	<anchor x="-255" y="260" name="_top"/>
	<outline>
		<contour>
			<point x="-384" y="630" type="curve" smooth="yes"/>
			<point x="-327" y="630"/>
			<point x="-271" y="667"/>
			<point x="-271" y="738" type="curve" smooth="yes"/>
			<point x="-271" y="810"/>
			<point x="-327" y="847"/>
			<point x="-384" y="847" type="curve" smooth="yes"/>
			<point x="-442" y="847"/>
			<point x="-498" y="810"/>
			<point x="-498" y="738" type="curve" smooth="yes"/>
			<point x="-498" y="667"/>
			<point x="-442" y="630"/>
		</contour>
		<contour>
			<point x="-384" y="697" type="curve" smooth="yes"/>
			<point x="-405" y="697"/>
			<point x="-422" y="711"/>
			<point x="-422" y="738" type="curve" smooth="yes"/>
			<point x="-422" y="766"/>
			<point x="-405" y="779"/>
			<point x="-384" y="779" type="curve" smooth="yes"/>
			<point x="-364" y="779"/>
			<point x="-347" y="766"/>
			<point x="-347" y="738" type="curve" smooth="yes"/>
			<point x="-347" y="712"/>
			<point x="-364" y="697"/>
		</contour>
		<contour>
			<point x="-373" y="900" type="curve" smooth="yes"/>
			<point x="-340" y="900"/>
			<point x="-327" y="920"/>
			<point x="-327" y="943" type="curve" smooth="yes"/>
			<point x="-327" y="1057" type="line" smooth="yes"/>
			<point x="-327" y="1092"/>
			<point x="-342" y="1114"/>
			<point x="-386" y="1114" type="curve" smooth="yes"/>
			<point x="-419" y="1114"/>
			<point x="-433" y="1094"/>
			<point x="-433" y="1071" type="curve" smooth="yes"/>
			<point x="-433" y="957" type="line" smooth="yes"/>
			<point x="-433" y="922"/>
			<point x="-417" y="900"/>
		</contour>
	</outline>
</glyph>
<glyph name="nikhahit_maiTho-thai" format="2">
	<advance width="0"/>
	<anchor x="-92" y="522" name="top"/>
	<anchor x="-75" y="260" name="_top"/>
	<outline>
		<contour>
			<point x="-141" y="630" type="curve" smooth="yes"/>
			<point x="-84" y="630"/>
			<point x="-28" y="667"/>
			<point x="-28" y="738" type="curve" smooth="yes"/>
			<point x="-28" y="810"/>
			<point x="-84" y="847"/>
			<point x="-141" y="847" type="curve" smooth="yes"/>
			<point x="-199" y="847"/>
			<point x="-255" y="810"/>
			<point x="-255" y="738" type="curve" smooth="yes"/>
			<point x="-255" y="667"/>
			<point x="-199" y="630"/>
		</contour>
		<contour>
			<point x="-141" y="697" type="curve" smooth="yes"/>
			<point x="-162" y="697"/>
			<point x="-179" y="711"/>
			<point x="-179" y="738" type="curve" smooth="yes"/>
			<point x="-179" y="766"/>
			<point x="-162" y="779"/>
			<point x="-141" y="779" type="curve" smooth="yes"/>
			<point x="-121" y="779"/>
			<point x="-104" y="766"/>
			<point x="-104" y="738" type="curve" smooth="yes"/>
			<point x="-104" y="712"/>
			<point x="-121" y="697"/>
		</contour>
		<contour>
			<point x="-277" y="900" type="curve" smooth="yes"/>
			<point x="-127" y="900"/>
			<point x="-50" y="935"/>
			<point x="3" y="1010" type="curve" smooth="yes"/>
			<point x="18" y="1031"/>
			<point x="30" y="1058"/>
			<point x="30" y="1086" type="curve" smooth="yes"/>
			<point x="30" y="1112"/>
			<point x="11" y="1133"/>
			<point x="-24" y="1133" type="curve" smooth="yes"/>
			<point x="-43" y="1133"/>
			<point x="-52" y="1124"/>
			<point x="-58" y="1107" type="curve" smooth="yes"/>
			<point x="-87" y="1024"/>
			<point x="-113" y="979"/>
			<point x="-204" y="963" type="curve"/>
			<point x="-176" y="987"/>
			<point x="-161" y="1023"/>
			<point x="-161" y="1057" type="curve" smooth="yes"/>
			<point x="-161" y="1103"/>
			<point x="-188" y="1144"/>
			<point x="-246" y="1144" type="curve" smooth="yes"/>
			<point x="-291" y="1144"/>
			<point x="-323" y="1115"/>
			<point x="-323" y="1075" type="curve" smooth="yes"/>
			<point x="-323" y="1036"/>
			<point x="-292" y="1010"/>
			<point x="-258" y="1010" type="curve" smooth="yes"/>
			<point x="-250" y="1010"/>
			<point x="-244" y="1011"/>
			<point x="-239" y="1013" type="curve"/>
			<point x="-237" y="1010" type="line"/>
			<point x="-245" y="996"/>
			<point x="-268" y="976"/>
			<point x="-290" y="966" type="curve"/>
			<point x="-290" y="912" type="line" smooth="yes"/>
			<point x="-290" y="903"/>
			<point x="-286" y="900"/>
		</contour>
		<contour>
			<point x="-246" y="1048" type="curve" smooth="yes"/>
			<point x="-262" y="1048"/>
			<point x="-274" y="1059"/>
			<point x="-274" y="1077" type="curve" smooth="yes"/>
			<point x="-274" y="1095"/>
			<point x="-262" y="1106"/>
			<point x="-246" y="1106" type="curve" smooth="yes"/>
			<point x="-231" y="1106"/>
			<point x="-218" y="1095"/>
			<point x="-218" y="1077" type="curve" smooth="yes"/>
			<point x="-218" y="1056"/>
			<point x="-231" y="1048"/>
		</contour>
	</outline>
</glyph>
<glyph name="nikhahit_maiTho-thai.narrow" format="2">
	<advance width="0"/>
	<anchor x="-332" y="522" name="top"/>
	<anchor x="-255" y="260" name="_top"/>
	<outline>
		<contour>
			<point x="-384" y="630" type="curve" smooth="yes"/>
			<point x="-327" y="630"/>
			<point x="-271" y="667"/>
			<point x="-271" y="738" type="curve" smooth="yes"/>
			<point x="-271" y="810"/>
			<point x="-327" y="847"/>
			<point x="-384" y="847" type="curve" smooth="yes"/>
			<point x="-442" y="847"/>
			<point x="-498" y="810"/>
			<point x="-498" y="738" type="curve" smooth="yes"/>
			<point x="-498" y="667"/>
			<point x="-442" y="630"/>
		</contour>
		<contour>
			<point x="-384" y="697" type="curve" smooth="yes"/>
			<point x="-405" y="697"/>
			<point x="-422" y="711"/>
			<point x="-422" y="738" type="curve" smooth="yes"/>
			<point x="-422" y="766"/>
			<point x="-405" y="779"/>
			<point x="-384" y="779" type="curve" smooth="yes"/>
			<point x="-364" y="779"/>
			<point x="-347" y="766"/>
			<point x="-347" y="738" type="curve" smooth="yes"/>
			<point x="-347" y="712"/>
			<point x="-364" y="697"/>
		</contour>
		<contour>
			<point x="-497" y="900" type="curve" smooth="yes"/>
			<point x="-347" y="900"/>
			<point x="-270" y="935"/>
			<point x="-217" y="1010" type="curve" smooth="yes"/>
			<point x="-202" y="1031"/>
			<point x="-190" y="1058"/>
			<point x="-190" y="1086" type="curve" smooth="yes"/>
			<point x="-190" y="1112"/>
			<point x="-209" y="1133"/>
			<point x="-244" y="1133" type="curve" smooth="yes"/>
			<point x="-263" y="1133"/>
			<point x="-272" y="1124"/>
			<point x="-278" y="1107" type="curve" smooth="yes"/>
			<point x="-307" y="1024"/>
			<point x="-333" y="979"/>
			<point x="-424" y="963" type="curve"/>
			<point x="-396" y="987"/>
			<point x="-381" y="1023"/>
			<point x="-381" y="1057" type="curve" smooth="yes"/>
			<point x="-381" y="1103"/>
			<point x="-408" y="1144"/>
			<point x="-466" y="1144" type="curve" smooth="yes"/>
			<point x="-511" y="1144"/>
			<point x="-543" y="1115"/>
			<point x="-543" y="1075" type="curve" smooth="yes"/>
			<point x="-543" y="1036"/>
			<point x="-512" y="1010"/>
			<point x="-478" y="1010" type="curve" smooth="yes"/>
			<point x="-470" y="1010"/>
			<point x="-464" y="1011"/>
			<point x="-459" y="1013" type="curve"/>
			<point x="-457" y="1010" type="line"/>
			<point x="-465" y="996"/>
			<point x="-488" y="976"/>
			<point x="-510" y="966" type="curve"/>
			<point x="-510" y="912" type="line" smooth="yes"/>
			<point x="-510" y="903"/>
			<point x="-506" y="900"/>
		</contour>
		<contour>
			<point x="-466" y="1048" type="curve" smooth="yes"/>
			<point x="-482" y="1048"/>
			<point x="-494" y="1059"/>
			<point x="-494" y="1077" type="curve" smooth="yes"/>
			<point x="-494" y="1095"/>
			<point x="-482" y="1106"/>
			<point x="-466" y="1106" type="curve" smooth="yes"/>
			<point x="-451" y="1106"/>
			<point x="-438" y="1095"/>
			<point x="-438" y="1077" type="curve" smooth="yes"/>
			<point x="-438" y="1056"/>
			<point x="-451" y="1048"/>
		</contour>
	</outline>
</glyph>
<glyph name="nikhahit_maiTri-thai" format="2">
	<advance width="0"/>
	<anchor x="-92" y="522" name="top"/>
	<anchor x="-75" y="260" name="_top"/>
	<outline>
		<contour>
			<point x="-141" y="630" type="curve" smooth="yes"/>
			<point x="-84" y="630"/>
			<point x="-28" y="667"/>
			<point x="-28" y="738" type="curve" smooth="yes"/>
			<point x="-28" y="810"/>
			<point x="-84" y="847"/>
			<point x="-141" y="847" type="curve" smooth="yes"/>
			<point x="-199" y="847"/>
			<point x="-255" y="810"/>
			<point x="-255" y="738" type="curve" smooth="yes"/>
			<point x="-255" y="667"/>
			<point x="-199" y="630"/>
		</contour>
		<contour>
			<point x="-141" y="697" type="curve" smooth="yes"/>
			<point x="-162" y="697"/>
			<point x="-179" y="711"/>
			<point x="-179" y="738" type="curve" smooth="yes"/>
			<point x="-179" y="766"/>
			<point x="-162" y="779"/>
			<point x="-141" y="779" type="curve" smooth="yes"/>
			<point x="-121" y="779"/>
			<point x="-104" y="766"/>
			<point x="-104" y="738" type="curve" smooth="yes"/>
			<point x="-104" y="712"/>
			<point x="-121" y="697"/>
		</contour>
		<contour>
			<point x="-277" y="894" type="curve" smooth="yes"/>
			<point x="-234" y="894"/>
			<point x="-203" y="922"/>
			<point x="-203" y="960" type="curve" smooth="yes"/>
			<point x="-203" y="1000"/>
			<point x="-233" y="1022"/>
			<point x="-265" y="1022" type="curve" smooth="yes"/>
			<point x="-273" y="1022"/>
			<point x="-280" y="1020"/>
			<point x="-285" y="1018" type="curve"/>
			<point x="-287" y="1021" type="line"/>
			<point x="-287" y="1048"/>
			<point x="-271" y="1058"/>
			<point x="-254" y="1058" type="curve" smooth="yes"/>
			<point x="-235" y="1058"/>
			<point x="-219" y="1044"/>
			<point x="-217" y="1027" type="curve"/>
			<point x="-185" y="1027" type="line"/>
			<point x="-184" y="1045"/>
			<point x="-175" y="1058"/>
			<point x="-159" y="1058" type="curve" smooth="yes"/>
			<point x="-142" y="1058"/>
			<point x="-135" y="1048"/>
			<point x="-135" y="1025" type="curve" smooth="yes"/>
			<point x="-135" y="921" type="line" smooth="yes"/>
			<point x="-135" y="909"/>
			<point x="-128" y="904"/>
			<point x="-118" y="904" type="curve" smooth="yes"/>
			<point x="-17" y="904" type="line" smooth="yes"/>
			<point x="30" y="904"/>
			<point x="61" y="920"/>
			<point x="61" y="969" type="curve" smooth="yes"/>
			<point x="61" y="1093" type="line" smooth="yes"/>
			<point x="61" y="1127"/>
			<point x="41" y="1138"/>
			<point x="16" y="1138" type="curve" smooth="yes"/>
			<point x="-5" y="1138"/>
			<point x="-20" y="1125"/>
			<point x="-20" y="1105" type="curve" smooth="yes"/>
			<point x="-20" y="970" type="line" smooth="yes"/>
			<point x="-20" y="955"/>
			<point x="-27" y="946"/>
			<point x="-44" y="946" type="curve" smooth="yes"/>
			<point x="-54" y="946" type="line"/>
			<point x="-54" y="1048" type="line" smooth="yes"/>
			<point x="-54" y="1093"/>
			<point x="-83" y="1121"/>
			<point x="-132" y="1121" type="curve" smooth="yes"/>
			<point x="-165" y="1121"/>
			<point x="-190" y="1102"/>
			<point x="-200" y="1081" type="curve"/>
			<point x="-209" y="1103"/>
			<point x="-236" y="1121"/>
			<point x="-267" y="1121" type="curve" smooth="yes"/>
			<point x="-324" y="1121"/>
			<point x="-369" y="1081"/>
			<point x="-369" y="999" type="curve" smooth="yes"/>
			<point x="-369" y="933"/>
			<point x="-327" y="894"/>
		</contour>
		<contour>
			<point x="-277" y="930" type="curve" smooth="yes"/>
			<point x="-291" y="930"/>
			<point x="-303" y="941"/>
			<point x="-303" y="958" type="curve" smooth="yes"/>
			<point x="-303" y="978"/>
			<point x="-291" y="986"/>
			<point x="-277" y="986" type="curve" smooth="yes"/>
			<point x="-261" y="986"/>
			<point x="-250" y="975"/>
			<point x="-250" y="958" type="curve" smooth="yes"/>
			<point x="-250" y="941"/>
			<point x="-261" y="930"/>
		</contour>
	</outline>
</glyph>
<glyph name="nikhahit_maiTri-thai.narrow" format="2">
	<advance width="0"/>
	<anchor x="-332" y="522" name="top"/>
	<anchor x="-255" y="260" name="_top"/>
	<outline>
		<contour>
			<point x="-384" y="630" type="curve" smooth="yes"/>
			<point x="-327" y="630"/>
			<point x="-271" y="667"/>
			<point x="-271" y="738" type="curve" smooth="yes"/>
			<point x="-271" y="810"/>
			<point x="-327" y="847"/>
			<point x="-384" y="847" type="curve" smooth="yes"/>
			<point x="-442" y="847"/>
			<point x="-498" y="810"/>
			<point x="-498" y="738" type="curve" smooth="yes"/>
			<point x="-498" y="667"/>
			<point x="-442" y="630"/>
		</contour>
		<contour>
			<point x="-384" y="697" type="curve" smooth="yes"/>
			<point x="-405" y="697"/>
			<point x="-422" y="711"/>
			<point x="-422" y="738" type="curve" smooth="yes"/>
			<point x="-422" y="766"/>
			<point x="-405" y="779"/>
			<point x="-384" y="779" type="curve" smooth="yes"/>
			<point x="-364" y="779"/>
			<point x="-347" y="766"/>
			<point x="-347" y="738" type="curve" smooth="yes"/>
			<point x="-347" y="712"/>
			<point x="-364" y="697"/>
		</contour>
		<contour>
			<point x="-487" y="894" type="curve" smooth="yes"/>
			<point x="-444" y="894"/>
			<point x="-413" y="922"/>
			<point x="-413" y="960" type="curve" smooth="yes"/>
			<point x="-413" y="1000"/>
			<point x="-443" y="1022"/>
			<point x="-475" y="1022" type="curve" smooth="yes"/>
			<point x="-483" y="1022"/>
			<point x="-490" y="1020"/>
			<point x="-495" y="1018" type="curve"/>
			<point x="-497" y="1021" type="line"/>
			<point x="-497" y="1048"/>
			<point x="-481" y="1058"/>
			<point x="-464" y="1058" type="curve" smooth="yes"/>
			<point x="-445" y="1058"/>
			<point x="-429" y="1044"/>
			<point x="-427" y="1027" type="curve"/>
			<point x="-395" y="1027" type="line"/>
			<point x="-394" y="1045"/>
			<point x="-385" y="1058"/>
			<point x="-369" y="1058" type="curve" smooth="yes"/>
			<point x="-352" y="1058"/>
			<point x="-345" y="1048"/>
			<point x="-345" y="1025" type="curve" smooth="yes"/>
			<point x="-345" y="921" type="line" smooth="yes"/>
			<point x="-345" y="909"/>
			<point x="-338" y="904"/>
			<point x="-328" y="904" type="curve" smooth="yes"/>
			<point x="-227" y="904" type="line" smooth="yes"/>
			<point x="-180" y="904"/>
			<point x="-149" y="920"/>
			<point x="-149" y="969" type="curve" smooth="yes"/>
			<point x="-149" y="1093" type="line" smooth="yes"/>
			<point x="-149" y="1127"/>
			<point x="-169" y="1138"/>
			<point x="-194" y="1138" type="curve" smooth="yes"/>
			<point x="-215" y="1138"/>
			<point x="-230" y="1125"/>
			<point x="-230" y="1105" type="curve" smooth="yes"/>
			<point x="-230" y="970" type="line" smooth="yes"/>
			<point x="-230" y="955"/>
			<point x="-237" y="946"/>
			<point x="-254" y="946" type="curve" smooth="yes"/>
			<point x="-264" y="946" type="line"/>
			<point x="-264" y="1048" type="line" smooth="yes"/>
			<point x="-264" y="1093"/>
			<point x="-293" y="1121"/>
			<point x="-342" y="1121" type="curve" smooth="yes"/>
			<point x="-375" y="1121"/>
			<point x="-400" y="1102"/>
			<point x="-410" y="1081" type="curve"/>
			<point x="-419" y="1103"/>
			<point x="-446" y="1121"/>
			<point x="-477" y="1121" type="curve" smooth="yes"/>
			<point x="-534" y="1121"/>
			<point x="-579" y="1081"/>
			<point x="-579" y="999" type="curve" smooth="yes"/>
			<point x="-579" y="933"/>
			<point x="-537" y="894"/>
		</contour>
		<contour>
			<point x="-487" y="930" type="curve" smooth="yes"/>
			<point x="-501" y="930"/>
			<point x="-513" y="941"/>
			<point x="-513" y="958" type="curve" smooth="yes"/>
			<point x="-513" y="978"/>
			<point x="-501" y="986"/>
			<point x="-487" y="986" type="curve" smooth="yes"/>
			<point x="-471" y="986"/>
			<point x="-460" y="975"/>
			<point x="-460" y="958" type="curve" smooth="yes"/>
			<point x="-460" y="941"/>
			<point x="-471" y="930"/>
		</contour>
	</outline>
</glyph>
<glyph name="saraI-thai.narrow" format="2">
	<advance width="0"/>
	<anchor x="-246" y="496" name="top"/>
	<anchor x="-246" y="260" name="_top"/>
	<note>
		saraI-thai.narrow
	</note>
	<outline>
		<contour>
			<point x="-636" y="632" type="curve" smooth="yes"/>
			<point x="-264" y="632" type="line" smooth="yes"/>
			<point x="-254" y="632"/>
			<point x="-246" y="638"/>
			<point x="-246" y="650" type="curve" smooth="yes"/>
			<point x="-246" y="684" type="line"/>
			<point x="-270" y="758"/>
			<point x="-341" y="819"/>
			<point x="-450" y="819" type="curve" smooth="yes"/>
			<point x="-559" y="819"/>
			<point x="-630" y="758"/>
			<point x="-654" y="684" type="curve"/>
			<point x="-654" y="650" type="line" smooth="yes"/>
			<point x="-654" y="638"/>
			<point x="-646" y="632"/>
		</contour>
		<contour>
			<point x="-543" y="694" type="line"/>
			<point x="-531" y="724"/>
			<point x="-500" y="749"/>
			<point x="-450" y="749" type="curve" smooth="yes"/>
			<point x="-400" y="749"/>
			<point x="-369" y="724"/>
			<point x="-357" y="694" type="curve"/>
		</contour>
	</outline>
</glyph>
